<svg width="14" height="6" viewBox="0 0 14 6" fill="none" xmlns="http://www.w3.org/2000/svg">
<path d="M4.08333 1.16667V0H12.25V1.16667H4.08333ZM4.08333 3.5V2.33333H12.25V3.5H4.08333ZM4.08333 5.83333V4.66667H12.25V5.83333H4.08333ZM2.33333 1.16667C2.16806 1.16667 2.02951 1.11076 1.91771 0.998958C1.8059 0.887153 1.75 0.748611 1.75 0.583333C1.75 0.418056 1.8059 0.279514 1.91771 0.167708C2.02951 0.0559028 2.16806 0 2.33333 0C2.49861 0 2.63715 0.0559028 2.74896 0.167708C2.86076 0.279514 2.91667 0.418056 2.91667 0.583333C2.91667 0.748611 2.86076 0.887153 2.74896 0.998958C2.63715 1.11076 2.49861 1.16667 2.33333 1.16667ZM2.33333 3.5C2.16806 3.5 2.02951 3.4441 1.91771 3.33229C1.8059 3.22049 1.75 3.08194 1.75 2.91667C1.75 2.75139 1.8059 2.61285 1.91771 2.50104C2.02951 2.38924 2.16806 2.33333 2.33333 2.33333C2.49861 2.33333 2.63715 2.38924 2.74896 2.50104C2.86076 2.61285 2.91667 2.75139 2.91667 2.91667C2.91667 3.08194 2.86076 3.22049 2.74896 3.33229C2.63715 3.4441 2.49861 3.5 2.33333 3.5ZM2.33333 5.83333C2.16806 5.83333 2.02951 5.77743 1.91771 5.66563C1.8059 5.55382 1.75 5.41528 1.75 5.25C1.75 5.08472 1.8059 4.94618 1.91771 4.83437C2.02951 4.72257 2.16806 4.66667 2.33333 4.66667C2.49861 4.66667 2.63715 4.72257 2.74896 4.83437C2.86076 4.94618 2.91667 5.08472 2.91667 5.25C2.91667 5.41528 2.86076 5.55382 2.74896 5.66563C2.63715 5.77743 2.49861 5.83333 2.33333 5.83333Z" fill="#003D9B"/>
</svg>
